<svg xmlns="http://www.w3.org/2000/svg" viewBox="0 0 3000 3000" id="web-designer-building-website"><g><g><polyline fill="none" stroke="#1a1a1a" stroke-linecap="round" stroke-linejoin="round" stroke-miterlimit="10" stroke-width="4.033" points="1933.7 910.4 2448 910.4 2448 783.6"></polyline><g><g><path fill="#1c0311" stroke="#1a1a1a" stroke-linecap="round" stroke-linejoin="round" stroke-miterlimit="10" stroke-width="2.016" d="M1856,348.1H580.2c-58.7,0-107,44.1-113.8,101h1503.3C1963,392.2,1914.7,348.1,1856,348.1z"></path><circle cx="611" cy="398.6" r="13.5" fill="#fff" stroke="#1a1a1a" stroke-linecap="round" stroke-linejoin="round" stroke-miterlimit="10" stroke-width="4.033"></circle><circle cx="692.9" cy="398.6" r="13.5" fill="#fff" stroke="#1a1a1a" stroke-linecap="round" stroke-linejoin="round" stroke-miterlimit="10" stroke-width="4.033"></circle><circle cx="774.8" cy="398.6" r="13.5" fill="#fff" stroke="#1a1a1a" stroke-linecap="round" stroke-linejoin="round" stroke-miterlimit="10" stroke-width="4.033"></circle><path fill="#fff" stroke="#1a1a1a" stroke-linecap="round" stroke-linejoin="round" stroke-miterlimit="10" stroke-width="4.033" d="M466.4,449.1c-0.5,4.5-0.8,9-0.8,13.6v750.6c0,63.3,51.3,114.6,114.6,114.6H1856     c63.3,0,114.6-51.3,114.6-114.6V462.8c0-4.6-0.3-9.2-0.8-13.6H466.4z"></path><g><g><polyline fill="none" stroke="#1a1a1a" stroke-linecap="round" stroke-linejoin="round" stroke-width="4.033" points="1153.4 910.1 1153.4 922.2 1141.3 922.2"></polyline><line x1="1116.2" x2="575.8" y1="922.2" y2="922.2" fill="none" stroke="#1a1a1a" stroke-dasharray="25.135 25.135" stroke-linecap="round" stroke-linejoin="round" stroke-width="4.033"></line><polyline fill="none" stroke="#1a1a1a" stroke-linecap="round" stroke-linejoin="round" stroke-width="4.033" points="563.2 922.2 551.1 922.2 551.1 910.1"></polyline><line x1="551.1" x2="551.1" y1="887" y2="529.2" fill="none" stroke="#1a1a1a" stroke-dasharray="23.088 23.088" stroke-linecap="round" stroke-linejoin="round" stroke-width="4.033"></line><polyline fill="none" stroke="#1a1a1a" stroke-linecap="round" stroke-linejoin="round" stroke-width="4.033" points="551.1 517.6 551.1 505.5 563.2 505.5"></polyline><line x1="588.4" x2="1128.8" y1="505.5" y2="505.5" fill="none" stroke="#1a1a1a" stroke-dasharray="25.135 25.135" stroke-linecap="round" stroke-linejoin="round" stroke-width="4.033"></line><polyline fill="none" stroke="#1a1a1a" stroke-linecap="round" stroke-linejoin="round" stroke-width="4.033" points="1141.3 505.5 1153.4 505.5 1153.4 517.6"></polyline><line x1="1153.4" x2="1153.4" y1="540.7" y2="898.6" fill="none" stroke="#1a1a1a" stroke-dasharray="23.088 23.088" stroke-linecap="round" stroke-linejoin="round" stroke-width="4.033"></line></g></g><g><g><polyline fill="none" stroke="#1a1a1a" stroke-linecap="round" stroke-linejoin="round" stroke-width="4.033" points="1666.4 910.1 1666.4 922.2 1654.4 922.2"></polyline><line x1="1631.2" x2="1225.9" y1="922.2" y2="922.2" fill="none" stroke="#1a1a1a" stroke-dasharray="23.158 23.158" stroke-linecap="round" stroke-linejoin="round" stroke-width="4.033"></line><polyline fill="none" stroke="#1a1a1a" stroke-linecap="round" stroke-linejoin="round" stroke-width="4.033" points="1214.4 922.2 1202.3 922.2 1202.3 910.1"></polyline><line x1="1202.3" x2="1202.3" y1="887" y2="529.2" fill="none" stroke="#1a1a1a" stroke-dasharray="23.088 23.088" stroke-linecap="round" stroke-linejoin="round" stroke-width="4.033"></line><polyline fill="none" stroke="#1a1a1a" stroke-linecap="round" stroke-linejoin="round" stroke-width="4.033" points="1202.3 517.6 1202.3 505.5 1214.4 505.5"></polyline><line x1="1237.5" x2="1642.8" y1="505.5" y2="505.5" fill="none" stroke="#1a1a1a" stroke-dasharray="23.158 23.158" stroke-linecap="round" stroke-linejoin="round" stroke-width="4.033"></line><polyline fill="none" stroke="#1a1a1a" stroke-linecap="round" stroke-linejoin="round" stroke-width="4.033" points="1654.4 505.5 1666.4 505.5 1666.4 517.6"></polyline><line x1="1666.4" x2="1666.4" y1="540.7" y2="898.6" fill="none" stroke="#1a1a1a" stroke-dasharray="23.088 23.088" stroke-linecap="round" stroke-linejoin="round" stroke-width="4.033"></line></g></g><g><g><polyline fill="none" stroke="#1a1a1a" stroke-linecap="round" stroke-linejoin="round" stroke-width="4.033" points="1898.5 1249.9 1898.5 1262 1886.4 1262"></polyline><line x1="1864.9" x2="1746.1" y1="1262" y2="1262" fill="none" stroke="#1a1a1a" stroke-dasharray="21.595 21.595" stroke-linecap="round" stroke-linejoin="round" stroke-width="4.033"></line><polyline fill="none" stroke="#1a1a1a" stroke-linecap="round" stroke-linejoin="round" stroke-width="4.033" points="1735.3 1262 1723.2 1262 1723.2 1249.9"></polyline><line x1="1723.2" x2="1723.2" y1="1226.3" y2="529.4" fill="none" stroke="#1a1a1a" stroke-dasharray="23.623 23.623" stroke-linecap="round" stroke-linejoin="round" stroke-width="4.033"></line><polyline fill="none" stroke="#1a1a1a" stroke-linecap="round" stroke-linejoin="round" stroke-width="4.033" points="1723.2 517.6 1723.2 505.5 1735.3 505.5"></polyline><line x1="1756.9" x2="1875.6" y1="505.5" y2="505.5" fill="none" stroke="#1a1a1a" stroke-dasharray="21.595 21.595" stroke-linecap="round" stroke-linejoin="round" stroke-width="4.033"></line><polyline fill="none" stroke="#1a1a1a" stroke-linecap="round" stroke-linejoin="round" stroke-width="4.033" points="1886.4 505.5 1898.5 505.5 1898.5 517.6"></polyline><line x1="1898.5" x2="1898.5" y1="541.2" y2="1238.1" fill="none" stroke="#1a1a1a" stroke-dasharray="23.623 23.623" stroke-linecap="round" stroke-linejoin="round" stroke-width="4.033"></line></g></g><g><g><polyline fill="none" stroke="#1a1a1a" stroke-linecap="round" stroke-linejoin="round" stroke-width="4.033" points="1153.4 1234 1153.4 1246.1 1141.3 1246.1"></polyline><line x1="1116.2" x2="575.8" y1="1246.1" y2="1246.1" fill="none" stroke="#1a1a1a" stroke-dasharray="25.135 25.135" stroke-linecap="round" stroke-linejoin="round" stroke-width="4.033"></line><polyline fill="none" stroke="#1a1a1a" stroke-linecap="round" stroke-linejoin="round" stroke-width="4.033" points="563.2 1246.1 551.1 1246.1 551.1 1234"></polyline><line x1="551.1" x2="551.1" y1="1211.9" y2="1001.8" fill="none" stroke="#1a1a1a" stroke-dasharray="22.117 22.117" stroke-linecap="round" stroke-linejoin="round" stroke-width="4.033"></line><polyline fill="none" stroke="#1a1a1a" stroke-linecap="round" stroke-linejoin="round" stroke-width="4.033" points="551.1 990.7 551.1 978.6 563.2 978.6"></polyline><line x1="588.4" x2="1128.8" y1="978.6" y2="978.6" fill="none" stroke="#1a1a1a" stroke-dasharray="25.135 25.135" stroke-linecap="round" stroke-linejoin="round" stroke-width="4.033"></line><polyline fill="none" stroke="#1a1a1a" stroke-linecap="round" stroke-linejoin="round" stroke-width="4.033" points="1141.3 978.6 1153.4 978.6 1153.4 990.7"></polyline><line x1="1153.4" x2="1153.4" y1="1012.8" y2="1223" fill="none" stroke="#1a1a1a" stroke-dasharray="22.117 22.117" stroke-linecap="round" stroke-linejoin="round" stroke-width="4.033"></line></g></g><path fill="#fff" stroke="#1a1a1a" stroke-linecap="round" stroke-linejoin="round" stroke-miterlimit="10" stroke-width="4.033" d="M1119.7,1234H584.3c-9.1,0-16.4-7.3-16.4-16.4v-204.8c0-9.1,7.3-16.4,16.4-16.4h535.5     c9.1,0,16.4,7.3,16.4,16.4v204.8C1136.1,1226.7,1128.8,1234,1119.7,1234z"></path></g><g><polygon fill="#1c0311" stroke="#1a1a1a" stroke-linecap="round" stroke-linejoin="round" stroke-miterlimit="10" stroke-width="2.016" points="789.9 1136.2 819.5 1194 854.1 1139"></polygon><g><g><path fill="none" stroke="#1a1a1a" stroke-linecap="round" stroke-linejoin="round" stroke-width="4.033" d="M829.5,1161.7c3.6,1.9,7.1,3.9,10.5,5.9"></path><path fill="none" stroke="#1a1a1a" stroke-dasharray="24.061 24.061" stroke-linecap="round" stroke-linejoin="round" stroke-width="4.033" d="M860,1181c87.2,64.7,130.3,186.5,98.5,291c-27.8,91.5-101.8,159.9-168,228.8       c-33.7,35.1-68.1,76.1-68.8,124.7c-0.7,42.4,24.5,80.5,50.7,113.7c53.1,67.2,115,127.3,183.6,178.5"></path><path fill="none" stroke="#1a1a1a" stroke-linecap="round" stroke-linejoin="round" stroke-width="4.033" d="M965.7,2124.9c3.3,2.4,6.5,4.7,9.8,7"></path></g></g></g><g><path fill="#fff" stroke="#1a1a1a" stroke-linecap="round" stroke-linejoin="round" stroke-miterlimit="10" stroke-width="4.033" d="M1140.7,2051.8H291.6c-51.7,0-93.6,41.9-93.6,93.6v18h942.7V2051.8z"></path><rect width="942.7" height="109.9" x="198" y="2163.4" fill="#1c0311" stroke="#1a1a1a" stroke-linecap="round" stroke-linejoin="round" stroke-miterlimit="10" stroke-width="2.016"></rect><rect width="942.7" height="378.6" x="198" y="2273.3" fill="#fff" stroke="#1a1a1a" stroke-linecap="round" stroke-linejoin="round" stroke-miterlimit="10" stroke-width="4.033"></rect><rect width="104.9" height="54.6" x="280.9" y="2544.5" fill="#fff" stroke="#1a1a1a" stroke-linecap="round" stroke-linejoin="round" stroke-miterlimit="10" stroke-width="4.033"></rect><rect width="104.9" height="54.6" x="413.8" y="2544.5" fill="#fff" stroke="#1a1a1a" stroke-linecap="round" stroke-linejoin="round" stroke-miterlimit="10" stroke-width="4.033"></rect><rect width="104.9" height="54.6" x="546.8" y="2544.5" fill="#fff" stroke="#1a1a1a" stroke-linecap="round" stroke-linejoin="round" stroke-miterlimit="10" stroke-width="4.033"></rect></g><path fill="#fff" stroke="#1a1a1a" stroke-linecap="round" stroke-linejoin="round" stroke-miterlimit="10" stroke-width="4.033" d="M626.8,2586c-39.1-102.8-20.7-217.8,48.5-298c82.2-95.2,222.7-125.9,344.8-72.8    c7.8-38.5,24.4-95.9,64.1-152.5c181.7-258.8,714.5-311.2,997.9-53.7c49,44.5,143.4,146.3,187.1,336.1    c92.9-117.8,263.4-119.7,348.2-29.5c81.1,86.3,74.3,246.6-37.2,336.1c-644.5,0-1289,0-1933.5,0    C640.1,2629.9,633.4,2608,626.8,2586z"></path><g><rect width="726" height="111" x="1090.6" y="1838.4" fill="#fff" stroke="#1a1a1a" stroke-linecap="round" stroke-linejoin="round" stroke-miterlimit="10" stroke-width="4.033"></rect><rect width="726" height="588" x="1090.6" y="1949.4" fill="#fff" stroke="#1a1a1a" stroke-linecap="round" stroke-linejoin="round" stroke-miterlimit="10" stroke-width="4.033"></rect><rect width="726" height="18.7" x="1090.6" y="2537.3" fill="#fff" stroke="#1a1a1a" stroke-linecap="round" stroke-linejoin="round" stroke-miterlimit="10" stroke-width="4.033"></rect><rect width="726" height="95.7" x="1090.6" y="2556" fill="#fff" stroke="#1a1a1a" stroke-linecap="round" stroke-linejoin="round" stroke-miterlimit="10" stroke-width="4.033"></rect><rect width="198.3" height="38.2" x="1358.1" y="2015.8" fill="#1c0311" stroke="#1a1a1a" stroke-linecap="round" stroke-linejoin="round" stroke-miterlimit="10" stroke-width="2.016"></rect><polygon fill="#1c0311" stroke="#1a1a1a" stroke-linecap="round" stroke-linejoin="round" stroke-miterlimit="10" stroke-width="2.016" points="1090.6 1838.4 1024.2 1923 1025.4 2001.2 1090.6 1951.6"></polygon><polygon fill="#fff" stroke="#1a1a1a" stroke-linecap="round" stroke-linejoin="round" stroke-miterlimit="10" stroke-width="4.033" points="1090.6 1951.6 1025.4 2001.2 1033.6 2548.4 1090.6 2536.5"></polygon><polygon fill="#fff" stroke="#1a1a1a" stroke-linecap="round" stroke-linejoin="round" stroke-miterlimit="10" stroke-width="4.033" points="1033.6 2548.4 1033.9 2569.7 1090.6 2555.5 1090.6 2536.5"></polygon><polygon fill="#1c0311" stroke="#1a1a1a" stroke-linecap="round" stroke-linejoin="round" stroke-miterlimit="10" stroke-width="2.016" points="1033.9 2569.7 1035.1 2651.8 1090.6 2651.8 1090.6 2555.5"></polygon></g><line x1="65" x2="2935" y1="2651.8" y2="2651.8" fill="none" stroke="#1a1a1a" stroke-linecap="round" stroke-linejoin="round" stroke-miterlimit="10" stroke-width="6.049"></line><circle cx="2449.9" cy="653.8" r="148.3" fill="#fff" stroke="#1a1a1a" stroke-linecap="round" stroke-linejoin="round" stroke-miterlimit="10" stroke-width="4.033"></circle><path fill="#1c0311" stroke="#1a1a1a" stroke-linecap="round" stroke-linejoin="round" stroke-miterlimit="10" stroke-width="2.016" d="M2471.7,623.6c10.3-6,17.3-17.2,17.3-30c0-19.2-15.6-34.7-34.7-34.7c-19.2,0-34.7,15.6-34.7,34.7    c0,12.8,6.9,24,17.3,30c-30.4,7.8-52.9,35.4-52.9,68.2v34h140.9v-34C2524.7,658.9,2502.1,631.3,2471.7,623.6z"></path><g><path fill="#54cafa" stroke="#1a1a1a" stroke-linecap="round" stroke-linejoin="round" stroke-miterlimit="10" stroke-width="4.033" d="M1569.2,1041.4c0,0,122.5,275.8,183.8,273.9c61.3-1.9-160.3,80.1-160.3,80.1l-23.5-190.2V1041.4z"></path><path fill="#54cafa" stroke="#1a1a1a" stroke-linecap="round" stroke-linejoin="round" stroke-miterlimit="10" stroke-width="4.033" d="M1214.8 1435.1c0 0-75.1-187.2 0-315.5s171.5-173.8 171.5-173.8 109.2-20.9 157.4 34.6c48.2 55.5 131.9 243.8 60 480.4C1440.9 1520 1214.8 1435.1 1214.8 1435.1zM1204.6 1374.1c0 0 93.9-76.3 194.1-76.3"></path><path fill="#fff" stroke="#1a1a1a" stroke-linecap="round" stroke-linejoin="round" stroke-miterlimit="10" stroke-width="4.033" d="M1915.6,1430.3c-86,88-88,252.5-88,252.5l128.6,99.4c0,0,40-95.8,108.9-210c64.6-107.1,174.7-286.5,0-308.3     s-481.7,161-481.7,161s-138.6,162.6-135.9,163.3c2.7,0.7,249.8,41.4,249.8,41.4s128.7-81.3,157.9-96.3"></path><path fill="#1c0311" stroke="#1a1a1a" stroke-linecap="round" stroke-linejoin="round" stroke-miterlimit="10" stroke-width="2.016" d="M1983.9,2420.4c7.9-0.9,13.8-5.2,18.7-11.1c-1.5-1.4-2.6-2.5-3.1-3.2c-7.2-10.2-15.5-23.2-15.5-23.2     l-79.2,19.1c0,0-0.2,9,0.6,21.4C1929,2434.9,1959.5,2423.9,1983.9,2420.4z"></path><path fill="#fff" stroke="#1a1a1a" stroke-linecap="round" stroke-linejoin="round" stroke-miterlimit="10" stroke-width="4.033" d="M2138.3,2523.5c-15.6-22.4-115.7-95.7-135.6-114.1c-4.9,5.9-10.9,10.2-18.7,11.1     c-24.4,3.5-54.9,14.5-78.4,3c1.4,22.7,6.1,57,20.8,70.5c22.7,20.9,121,65.1,158.8,65.5     C2122.8,2559.9,2155.1,2547.6,2138.3,2523.5z"></path><path fill="#fff" stroke="#1a1a1a" stroke-linecap="round" stroke-linejoin="round" stroke-miterlimit="10" stroke-width="4.033" d="M1262.6 1481.8c0 0-43.7 29.1-49.8 119.8-6.1 90.8 6.7 240.4 193.8 246.8s287.2 3.6 300.9-12.7c6.4 50.9 162.9 540.4 187.4 565.9 24.6 25.5 111 10.9 111.9-32.8s-6.4-483.1-16.4-545-25.5-205.6-423.1-254.7M1412.1 1622.2c0 0 14.9 35.5-5.5 71.9"></path><path fill="none" stroke="#1a1a1a" stroke-dasharray="24.196" stroke-linecap="round" stroke-linejoin="round" stroke-miterlimit="10" stroke-width="4.033" d="M1323.7,1626.7c0,0-18.8,125.1,229.9,107.8s304.8,38.5,313.4,185.2c8.6,146.8,66.8,470.2,66.8,470.2"></path><path fill="#1c0311" stroke="#1a1a1a" stroke-linecap="round" stroke-linejoin="round" stroke-miterlimit="10" stroke-width="2.016" d="M1244.6 1514.6c0 0 48.9 59.7 119.3 67.6 70.4 7.9 148.5 3.9 228.8-60.1 36.9-33.3 22.8-42.7 22.8-42.7h-362.2l-12.8 27.6L1244.6 1514.6zM1863.4 1372c0 0 174.7-132.4 201-149.4 26.3-17.1 9.9-33.1 9.9-33.1s-67-70.7-93.8-93.5c-26.8-22.7-43-6.1-43-6.1l-214.3 162.4c0 0-11.3 9.8 3.1 26.1s106.9 102.6 106.9 102.6S1841.6 1392.2 1863.4 1372z"></path><path fill="#fff" stroke="#1a1a1a" stroke-linecap="round" stroke-linejoin="round" stroke-miterlimit="10" stroke-width="4.033" d="M1868.3,1353c0,0,150.6-114.1,173.2-128.8c22.6-14.7,8.5-28.5,8.5-28.5s-57.7-61-80.9-80.6     c-23.1-19.6-37.1-5.3-37.1-5.3l-184.7,140c0,0-9.7,8.4,2.7,22.5c12.4,14.1,92.2,88.4,92.2,88.4S1849.5,1370.4,1868.3,1353z"></path><path fill="#fff" stroke="#1a1a1a" stroke-linecap="round" stroke-linejoin="round" stroke-miterlimit="10" stroke-width="4.033" d="M1399.1 1225.2l7.5 91c0 0 85.3 140.1 259.9 25.5 120.1-86 189.7-161 259.3-165.1s47.1 17.1 6.1 26.6c-40.9 9.6-28.7 32.1-27.3 43.7s-2.7 49.8-60.7 53.9c-58 4.1-61.4 40.3-96.2 76.4-34.8 36.2-159.4 186.5-322.3 194.7-162.9 8.2-204.7-120.2-210.6-136.7 0 0 60.7-81.9 176.7-113.3l15.1-5.7M2071.6 1217c0 0 6.7 14.4 32.1-11.3 25.5-25.7 9.3-56.4-10.9-82.8-20.2-26.4-45.5-29.1-45.5-29.1s-59.1 18.2-50.9 45.7c8.2 27.5 35.7 49.6 62.3 44.1 14.2-8.4 20 9.2 21.6 12.4C2080.3 1196 2084.5 1207.5 2071.6 1217zM1506.1 909.3c72.9 44.9 97.7-2.1 116.4-37.6 18.7-35.5 9.3-90.3 9.3-90.3-6.1-24.6-34.1-56.6-104.4-39.6-70.3 17.1-82.9 129.6-82.9 129.6l-57.3 82.9c0 0-1.3 27.4 42.4 32.4 43.7 5 64.3-7.1 70.9-19.6 14.1-29.6 21.9-46.9 21.9-46.9"></path><polygon fill="#1c0311" stroke="#1a1a1a" stroke-linecap="round" stroke-linejoin="round" stroke-miterlimit="10" stroke-width="2.016" points="1506.5 910.4 1519.2 924.8 1521 919.5"></polygon><path fill="#1c0311" stroke="#1a1a1a" stroke-linecap="round" stroke-linejoin="round" stroke-miterlimit="10" stroke-width="2.016" d="M1499,848.3c0,0-4.4,33.1-27,33.4s-58.7-35.1-54.9-67.9c3.8-32.8,31.7-94.5,86.7-119.4     c54.9-24.9,119.4,9.6,143.3,18.4s45.4,3.8,53.2-1c7.8-4.8,4.4,20.5-7.5,31c-11.9,10.6-32.8,42-103.7,23.9     c-11.6-3.4-38.2,13-38.2,21.2s-10.6,10.2-10.6,10.2s-18.8-40.6-36.2-23.9c-17.4,16.7,7.8,50.2,14,56.6S1499,848.3,1499,848.3z"></path></g><rect width="26.4" height="26.4" x="538.2" y="497.7" fill="#1c0311" stroke="#1a1a1a" stroke-linecap="round" stroke-linejoin="round" stroke-miterlimit="10" stroke-width="2.016"></rect><rect width="26.4" height="26.4" x="538.2" y="905.9" fill="#1c0311" stroke="#1a1a1a" stroke-linecap="round" stroke-linejoin="round" stroke-miterlimit="10" stroke-width="2.016"></rect><rect width="26.4" height="26.4" x="1138" y="497.7" fill="#1c0311" stroke="#1a1a1a" stroke-linecap="round" stroke-linejoin="round" stroke-miterlimit="10" stroke-width="2.016"></rect><rect width="26.4" height="26.4" x="1138" y="905.9" fill="#1c0311" stroke="#1a1a1a" stroke-linecap="round" stroke-linejoin="round" stroke-miterlimit="10" stroke-width="2.016"></rect></g><g><circle cx="395.8" cy="1614.1" r="155.3" fill="#fff" stroke="#1a1a1a" stroke-linecap="round" stroke-linejoin="round" stroke-miterlimit="10" stroke-width="4.033"></circle><circle cx="395.8" cy="1614.1" r="138.3" fill="#fff" stroke="#1a1a1a" stroke-linecap="round" stroke-linejoin="round" stroke-miterlimit="10" stroke-width="4.033"></circle><polygon fill="#1c0311" stroke="#1a1a1a" stroke-linecap="round" stroke-linejoin="round" stroke-miterlimit="10" stroke-width="2.016" points="363.7 1533.8 363.7 1694.3 450.9 1614.1"></polygon></g><g><circle cx="2524.7" cy="1286.6" r="110.6" fill="#fff" stroke="#1a1a1a" stroke-linecap="round" stroke-linejoin="round" stroke-miterlimit="10" stroke-width="4.033"></circle><circle cx="2524.7" cy="1286.6" r="98.6" fill="#fff" stroke="#1a1a1a" stroke-linecap="round" stroke-linejoin="round" stroke-miterlimit="10" stroke-width="4.033"></circle><g><path d="M2499.6,1340.7l4.5-33.8h-14.1v-10.2h15.7l3.3-25h-14.8v-10.2h16.4l4.5-32.9h10l-4.3,32.9h17.9l4.5-32.9h10.2l-4.3,32.9     h14.1v10.2h-15.7l-3.1,25h14.8v10.2h-16.4l-4.5,33.8h-10.3l4.5-33.8h-17.9l-4.5,33.8H2499.6z M2533.9,1296.7l3.3-25h-17.9     l-3.3,25H2533.9z"></path></g></g><polyline fill="none" stroke="#1a1a1a" stroke-linecap="round" stroke-linejoin="round" stroke-miterlimit="10" stroke-width="6.049" points="2020.6 2435.3 1998.6 2466 2043.6 2454.5 2037.8 2488.5 2070.4 2477 2064.7 2495.2"></polyline><g><rect width="174.7" height="174.7" x="170.2" y="707.8" fill="#fff" stroke="#1a1a1a" stroke-linecap="round" stroke-linejoin="round" stroke-miterlimit="10" stroke-width="4.033"></rect><line x1="257.5" x2="257.5" y1="737.6" y2="852.6" fill="#fff" stroke="#1a1a1a" stroke-linecap="round" stroke-linejoin="round" stroke-miterlimit="10" stroke-width="4.033"></line><line x1="200.2" x2="313.4" y1="795.1" y2="795.1" fill="#fff" stroke="#1a1a1a" stroke-linecap="round" stroke-linejoin="round" stroke-miterlimit="10" stroke-width="4.033"></line></g><circle cx="2448" cy="910.4" r="22.7" fill="#fff" stroke="#1a1a1a" stroke-linecap="round" stroke-linejoin="round" stroke-miterlimit="10" stroke-width="4.033"></circle><g><g><rect width="263.5" height="170.9" x="2232.2" y="1707.5" fill="#fff" stroke="#1a1a1a" stroke-linecap="round" stroke-linejoin="round" stroke-miterlimit="10" stroke-width="4.033"></rect><polygon fill="#fff" stroke="#1a1a1a" stroke-linecap="round" stroke-linejoin="round" stroke-miterlimit="10" stroke-width="4.033" points="2363.9 1790.5 2232.2 1707.5 2495.7 1707.5"></polygon></g><line x1="2232.2" x2="2330.3" y1="1878.4" y2="1769.4" fill="#fff" stroke="#1a1a1a" stroke-linecap="round" stroke-linejoin="round" stroke-miterlimit="10" stroke-width="4.033"></line><line x1="2401.2" x2="2495.7" y1="1769.4" y2="1878.4" fill="#fff" stroke="#1a1a1a" stroke-linecap="round" stroke-linejoin="round" stroke-miterlimit="10" stroke-width="4.033"></line></g></g></g></svg>