<svg xmlns="http://www.w3.org/2000/svg" data-name="Layer 2" viewBox="0 0 1073.42 635.14" id="graph"><defs><linearGradient id="a" x1="1044.23" x2="1043.7" y1="750.87" y2="298.75" gradientUnits="userSpaceOnUse"><stop offset="0" stop-color="#fff"></stop><stop offset="1" stop-color="#bac6f2"></stop></linearGradient></defs><path fill="#f8f8ff" d="M571.14 720.34c-32.52-30-54-73.38-47.67-117.18 13.06-90-45.88-204.36 49.31-237.93 48.12-17 40.17-142 78.84-176.8 66.69-60 173.5 16.13 384.66 4.78 206.72-11.12 298.11-119.41 439.6 38.22 110.35 122.94 26.91 190.23 105 303.27 47.79 69.21-94.76 216.14-94.76 216.14l-882.33-.38Z" transform="translate(-517.22 -146.62)"></path><path fill="url(#a)" stroke="#bac6f2" stroke-miterlimit="10" stroke-width="5" d="M579 770s9-126 79.5-113.5c70.08 12.42 62 76 98 68s38.93-93.79 53-196c12.21-88.69 60.82-61.53 69.88-32.93C887 519.55 890 595 919 600s39-52 41-80 12-142 48.5-143.5C1043 375.08 1058 426 1058 523s4 160 20 186 37 19 43.5 15.5c8.09-4.36 32.5-45.5 38.5-147.5s46-87 55-72 33.5 97.5 63.5 95.5S1317 579 1322 533s12.41-159.9 50.5-158.5c39.46 1.45 55.32 181.62 54.65 235.78-.85 68.33 50.35 149.22 82.35 149.22" transform="translate(-517.22 -146.62)"></path><circle cx="236.78" cy="577.38" r="13" fill="#bac6f2"></circle><circle cx="60.81" cy="622.14" r="13" fill="#bac6f2"></circle><circle cx="409.78" cy="451.38" r="13" fill="#bac6f2"></circle><circle cx="329.84" cy="322.48" r="13" fill="#bac6f2"></circle><circle cx="495.97" cy="231.25" r="13" fill="#bac6f2"></circle><circle cx="680.78" cy="350.38" r="13" fill="#bac6f2"></circle><circle cx="769.58" cy="453.6" r="13" fill="#bac6f2"></circle><circle cx="852.97" cy="229.84" r="13" fill="#bac6f2"></circle><circle cx="991.88" cy="613.96" r="13" fill="#bac6f2"></circle><circle cx="589.78" cy="578.38" r="13" fill="#bac6f2"></circle><circle cx="208.58" cy="180.81" r="47.87" fill="#fff"></circle><circle cx="256.4" cy="184.3" r="34.58" fill="#fff"></circle><circle cx="777.34" cy="114.65" r="47.87" fill="#fff"></circle><circle cx="825.16" cy="118.14" r="34.58" fill="#fff"></circle><path fill="#bac6f2" d="m1456.23 481.77 23.77-34c2.61-4.59 9.86-4.19 13.39-.26l23.37 32c4.82 5.36 2.27 15.35-4.93 15.47l-47.26.79a9.42 9.42 0 0 1-8.34-14ZM608.19 505.44l-23.81 33.93c-2.62 4.59-9.87 4.18-13.39.25l-23.33-32.06c-4.81-5.37-2.25-15.36 5-15.47l47.26-.73a9.42 9.42 0 0 1 8.27 14.08Z" transform="translate(-517.22 -146.62)"></path></svg>