<svg xmlns="http://www.w3.org/2000/svg" viewBox="0 0 2582 1936.5" id="employee-giving-presentation"><g data-name="Layer 1"><path fill="#ccc" d="M2269.79 1808.78H346.09a2 2 0 0 1 0-4h1923.7a2 2 0 0 1 0 4Z"></path><path fill="#ededed" d="M292.55 552.12h89.92v135.73h-89.92zM450.5 461.6h89.92v226.24H450.5zM608.45 342.22h89.92v345.62h-89.92zM1972.51 489.14q-15.13-12.36-16.88-33.25c-.47-7-.7-11.95-.7-15q0-4.87.7-18.8 1.38-21.24 16.19-33.61t40.18-12.33q25.41 0 40.22 12.36t16.19 33.61q.69 13.92.69 18.8c0 3-.23 8-.69 15q-1.76 20.88-16.89 33.25T2012 501.5q-24.34 0-39.49-12.36Zm7 130.57a6.31 6.31 0 0 1-2.26-5.05 6.06 6.06 0 0 1 1.39-3.83l172-226.32a21.18 21.18 0 0 1 5.4-5.05 13.88 13.88 0 0 1 7.13-1.57h36.22a9.16 9.16 0 0 1 6.09 1.92 6.32 6.32 0 0 1 2.26 5.05 6 6 0 0 1-1.39 3.83L2034.32 615a21.49 21.49 0 0 1-5.4 5 13.93 13.93 0 0 1-7.14 1.56h-36.21a9.11 9.11 0 0 1-6.1-1.85Zm41.26-166.26q.7-9.74.7-14.62 0-5.93-.7-14.28-.69-10.44-8.7-10.44t-8.7 10.44q-.36 4.18-.35 14.28 0 9.75.35 14.62.69 10.44 8.7 10.45t8.66-10.45Zm114 157.56q-15.15-12.36-16.89-33.25-.71-10.46-.7-15 0-4.87.7-18.8 1.38-21.24 16.19-33.6t40.21-12.36q25.42 0 40.22 12.36t16.19 33.6q.69 13.93.7 18.8 0 4.53-.7 15-1.69 20.88-16.89 33.24t-39.52 12.35q-24.37.01-39.51-12.35Zm48.23-35.69q.69-9.75.7-14.63 0-5.91-.7-14.27-.7-10.45-8.71-10.45t-8.7 10.45q-.35 4.17-.35 14.27 0 9.75.35 14.63.69 10.44 8.7 10.44t8.71-10.44ZM1946.34 1308.31l-31.19-4.72a23.41 23.41 0 0 1-18.09-14.31 2.44 2.44 0 0 0-.1-.24 23.36 23.36 0 0 1 2.71-22.85l18.71-25.38a5.64 5.64 0 0 0-.55-7.33l-34.62-34.61a5.64 5.64 0 0 0-7.33-.56l-25.13 18.53a23.58 23.58 0 0 1-23.1 2.7l-.24-.1a23.55 23.55 0 0 1-14.35-18.21l-4.68-30.88a5.63 5.63 0 0 0-5.57-4.79h-49a5.64 5.64 0 0 0-5.57 4.79l-4.67 30.88a23.59 23.59 0 0 1-14.35 18.21l-.25.1a23.56 23.56 0 0 1-23.09-2.7l-25.14-18.53a5.63 5.63 0 0 0-7.33.56l-34.61 34.61a5.64 5.64 0 0 0-.56 7.33l18.72 25.38a23.38 23.38 0 0 1 2.7 22.85l-.1.24a23.38 23.38 0 0 1-18.09 14.31l-31.19 4.72a5.64 5.64 0 0 0-4.79 5.57v48.95a5.63 5.63 0 0 0 4.79 5.57l31.64 4.79a23.09 23.09 0 0 1 17.84 14 2.44 2.44 0 0 1 .1.24 23.14 23.14 0 0 1-2.63 22.67l-19 25.75a5.64 5.64 0 0 0 .55 7.33l34.62 34.62a5.64 5.64 0 0 0 7.33.55l26-19.17a22.91 22.91 0 0 1 22.42-2.64l.24.1a22.93 22.93 0 0 1 14 17.73l4.84 31.94a5.62 5.62 0 0 0 5.57 4.79h49a5.63 5.63 0 0 0 5.57-4.79l4.83-31.94a23 23 0 0 1 14-17.73l.23-.1a22.93 22.93 0 0 1 22.43 2.64l26 19.17a5.64 5.64 0 0 0 7.33-.55l34.62-34.62a5.64 5.64 0 0 0 .55-7.33l-19-25.75a23.1 23.1 0 0 1-2.63-22.67l.1-.24a23.09 23.09 0 0 1 17.84-14l31.64-4.79a5.62 5.62 0 0 0 4.78-5.57v-48.95a5.63 5.63 0 0 0-4.75-5.57Zm-167.45 93.47a63.43 63.43 0 1 1 62.87-62.87 63.43 63.43 0 0 1-62.87 62.87Z"></path><path fill="#f2f2f2" d="M780.01 264.02h1203.63v813.64H780.01z"></path><path fill="#464646" d="M1027.53 1807.18a2.75 2.75 0 0 1-2.66-3.51l202.75-726.75a2.76 2.76 0 1 1 5.32 1.49l-202.75 726.75a2.76 2.76 0 0 1-2.66 2.02ZM1754.28 1807.18a2.76 2.76 0 0 1-2.66-2l-202.76-726.75a2.77 2.77 0 0 1 5.33-1.49l202.75 726.75a2.76 2.76 0 0 1-1.92 3.41 2.69 2.69 0 0 1-.74.08Z"></path><path fill="#464646" d="M1684.5 1552.42a3 3 0 0 1-.72-.09l-544.41-148.78a2.76 2.76 0 0 1 1.45-5.33L1685.23 1547a2.76 2.76 0 0 1-.73 5.43Z"></path><path fill="#464646" d="M1099.28 1555.06a2.76 2.76 0 0 1-.73-5.43l543.08-150.09a2.76 2.76 0 1 1 1.47 5.33L1100 1555a3.21 3.21 0 0 1-.72.06ZM769.48 1059.23h1221.78v26.33H769.48zM769.48 253.49h1221.78v26.33H769.48z"></path><path fill="#2b2b2b" d="M1522.42 1073.06H1256.1a26.36 26.36 0 0 1-22.87-13.27l-.32-.56h312.69l-.32.56a26.33 26.33 0 0 1-22.86 13.27ZM1256.1 241.31h266.32a26.31 26.31 0 0 1 22.86 13.27l.32.55h-312.69l.32-.55a26.34 26.34 0 0 1 22.87-13.27Z"></path><circle cx="1808.38" cy="237.95" r="84.64" fill="#ff9d5a" transform="rotate(-17.77 1808.266 237.957)"></circle><circle cx="1808.38" cy="237.95" r="59.77" fill="#ffaf78" transform="rotate(-13.28 1808.747 237.941)"></circle><path fill="#fff" d="M1808.38 298.87A60.92 60.92 0 1 1 1869.3 238a61 61 0 0 1-60.92 60.87Zm0-119.54A58.62 58.62 0 1 0 1867 238a58.69 58.69 0 0 0-58.62-58.67Z"></path><path fill="#fff" d="M1806.58 266.56a1.5 1.5 0 0 1-.45-1.16v-4.76a21.43 21.43 0 0 1-8.19-2.21 13.85 13.85 0 0 1-5.23-4.48 11.06 11.06 0 0 1-1.94-5.75 1.31 1.31 0 0 1 .41-.95 1.39 1.39 0 0 1 1-.41h3.26a1.78 1.78 0 0 1 1.77 1.36 8.22 8.22 0 0 0 3.5 4.93q2.89 2.07 8.26 2.07 5.77 0 8.63-2a6.54 6.54 0 0 0 2.86-5.64 5.37 5.37 0 0 0-1.39-3.81 11.53 11.53 0 0 0-4.15-2.61q-2.76-1.12-8.26-2.76a41.78 41.78 0 0 1-8.36-3.19 12.28 12.28 0 0 1-4.69-4.18 11.53 11.53 0 0 1-1.56-6.29 11.2 11.2 0 0 1 3.73-8.56q3.73-3.48 10.33-4.08v-4.7a1.46 1.46 0 0 1 .45-1.15 1.58 1.58 0 0 1 1.12-.41h2.45a1.41 1.41 0 0 1 1.08.44 1.57 1.57 0 0 1 .41 1.12v4.76a18.76 18.76 0 0 1 7.48 2.45 14.1 14.1 0 0 1 4.72 4.45 10.66 10.66 0 0 1 1.74 5.13 1.41 1.41 0 0 1-.41 1 1.38 1.38 0 0 1-1 .4h-3.4a1.84 1.84 0 0 1-1-.34 1.5 1.5 0 0 1-.65-1 6.85 6.85 0 0 0-3.26-4.83 12.6 12.6 0 0 0-7.14-1.91 13.05 13.05 0 0 0-7.34 1.81 6 6 0 0 0-2.72 5.33 5.82 5.82 0 0 0 1.26 3.88 10.57 10.57 0 0 0 3.87 2.65 70.74 70.74 0 0 0 7.58 2.65 56.12 56.12 0 0 1 9.11 3.26 12.32 12.32 0 0 1 5 4 10.85 10.85 0 0 1 1.63 6.22 11.69 11.69 0 0 1-4.11 9.31q-4.11 3.54-11.25 4.08v4.69a1.55 1.55 0 0 1-.41 1.12 1.38 1.38 0 0 1-1.08.45h-2.45a1.58 1.58 0 0 1-1.21-.38Z"></path><circle cx="435.2" cy="1033.15" r="84.64" fill="#ff9d5a" transform="rotate(-64.8 435.164 1033.126)"></circle><circle cx="435.2" cy="1033.15" r="59.77" fill="#ffaf78" transform="rotate(-45 435.206 1033.152)"></circle><path fill="#fff" d="M435.2 1094.08a60.93 60.93 0 1 1 60.93-60.92 61 61 0 0 1-60.93 60.92Zm0-119.55a58.63 58.63 0 1 0 58.62 58.63 58.69 58.69 0 0 0-58.62-58.63Z"></path><path fill="#fff" d="M433.4 1061.76a1.48 1.48 0 0 1-.45-1.15v-4.76a21.43 21.43 0 0 1-8.19-2.21 13.87 13.87 0 0 1-5.23-4.49 11.05 11.05 0 0 1-1.94-5.74 1.33 1.33 0 0 1 .41-1 1.39 1.39 0 0 1 1-.41h3.26a1.78 1.78 0 0 1 1.77 1.37 8.2 8.2 0 0 0 3.5 4.93q2.9 2.07 8.26 2.07 5.78 0 8.63-2a6.54 6.54 0 0 0 2.86-5.64 5.38 5.38 0 0 0-1.4-3.81 11.58 11.58 0 0 0-4.14-2.62q-2.76-1.11-8.26-2.75a41.72 41.72 0 0 1-8.36-3.2 12.3 12.3 0 0 1-4.7-4.18 11.61 11.61 0 0 1-1.56-6.29 11.23 11.23 0 0 1 3.74-8.56q3.74-3.47 10.33-4.08v-4.69a1.5 1.5 0 0 1 .45-1.16 1.57 1.57 0 0 1 1.12-.4h2.5a1.38 1.38 0 0 1 1.09.44 1.59 1.59 0 0 1 .41 1.12v4.76a18.66 18.66 0 0 1 7.48 2.45 14 14 0 0 1 4.72 4.45 10.63 10.63 0 0 1 1.74 5.13 1.4 1.4 0 0 1-1.43 1.43h-3.4a1.92 1.92 0 0 1-1.05-.34 1.54 1.54 0 0 1-.65-1 6.85 6.85 0 0 0-3.26-4.83 12.62 12.62 0 0 0-7.14-1.9 13.13 13.13 0 0 0-7.34 1.8 6 6 0 0 0-2.72 5.34 5.79 5.79 0 0 0 1.26 3.87 10.37 10.37 0 0 0 3.87 2.65 69.59 69.59 0 0 0 7.58 2.66 55.19 55.19 0 0 1 9.11 3.26 12.38 12.38 0 0 1 5 4 10.89 10.89 0 0 1 1.63 6.22 11.71 11.71 0 0 1-4.11 9.32q-4.11 3.53-11.25 4.07v4.7a1.61 1.61 0 0 1-.41 1.12 1.42 1.42 0 0 1-1.09.44h-2.44a1.58 1.58 0 0 1-1.2-.39Z"></path><circle cx="2115.07" cy="1179.1" r="84.64" fill="#ff9d5a" transform="rotate(-13.28 2115.473 1179.268)"></circle><circle cx="2115.07" cy="1179.1" r="59.77" fill="#ffaf78" transform="rotate(-14.87 2115.438 1179.24)"></circle><path fill="#fff" d="M2115.07 1240a60.93 60.93 0 1 1 60.93-60.9 61 61 0 0 1-60.93 60.9Zm0-119.55a58.62 58.62 0 1 0 58.62 58.62 58.69 58.69 0 0 0-58.62-58.59Z"></path><path fill="#fff" d="M2113.26 1207.71a1.51 1.51 0 0 1-.44-1.16v-4.76a21.43 21.43 0 0 1-8.19-2.21 13.76 13.76 0 0 1-5.23-4.48 11 11 0 0 1-1.94-5.75 1.31 1.31 0 0 1 .41-.95 1.39 1.39 0 0 1 1-.41h3.26a1.79 1.79 0 0 1 1.77 1.36 8.15 8.15 0 0 0 3.5 4.93c1.92 1.39 4.68 2.08 8.26 2.08 3.85 0 6.73-.69 8.63-2a6.54 6.54 0 0 0 2.86-5.65 5.37 5.37 0 0 0-1.4-3.8 11.49 11.49 0 0 0-4.14-2.62q-2.76-1.12-8.26-2.75a41.72 41.72 0 0 1-8.36-3.2 12.2 12.2 0 0 1-4.69-4.18 11.53 11.53 0 0 1-1.57-6.29 11.21 11.21 0 0 1 3.74-8.56c2.49-2.31 5.94-3.68 10.33-4.08v-4.69a1.53 1.53 0 0 1 .44-1.16 1.62 1.62 0 0 1 1.13-.41h2.45a1.38 1.38 0 0 1 1.08.45 1.58 1.58 0 0 1 .41 1.12v4.75a19 19 0 0 1 7.48 2.45 14 14 0 0 1 4.72 4.46 10.63 10.63 0 0 1 1.74 5.13 1.4 1.4 0 0 1-.41 1 1.39 1.39 0 0 1-1 .41h-3.4a1.89 1.89 0 0 1-1.06-.35 1.49 1.49 0 0 1-.64-1 6.85 6.85 0 0 0-3.26-4.83 12.62 12.62 0 0 0-7.14-1.9 13.13 13.13 0 0 0-7.34 1.8 6 6 0 0 0-2.72 5.34 5.81 5.81 0 0 0 1.26 3.87 10.45 10.45 0 0 0 3.87 2.65 70 70 0 0 0 7.58 2.65 57.1 57.1 0 0 1 9.11 3.26 12.39 12.39 0 0 1 5 4 10.87 10.87 0 0 1 1.63 6.22 11.67 11.67 0 0 1-4.11 9.31q-4.11 3.54-11.25 4.08v4.69a1.64 1.64 0 0 1-.41 1.13 1.41 1.41 0 0 1-1.08.44h-2.45a1.62 1.62 0 0 1-1.17-.39Z"></path><path fill="#ccc" d="M325.5 890.57a20.61 20.61 0 1 1 1.69-.06c-.57.04-1.13.06-1.69.06Zm.06-37.21h-1.34a16.45 16.45 0 1 0 17.72 15.09 16.45 16.45 0 0 0-16.38-15.14ZM2150.73 899.21a20.88 20.88 0 1 1 1.68-.07c-.56.05-1.13.07-1.68.07Zm.05-37.22h-1.33a16.46 16.46 0 0 0-9.36 28.94 16.46 16.46 0 0 0 27.08-13.84 16.47 16.47 0 0 0-16.39-15.09ZM1683.91 198.32a20.87 20.87 0 1 1 1.69-.07c-.6.05-1.13.07-1.69.07Zm.06-37.22c-.44 0-.89 0-1.33.05a16.46 16.46 0 0 0-9.37 28.94 16.52 16.52 0 0 0 12 3.87 16.46 16.46 0 0 0-1.27-32.86ZM1073.52 1229.44a20.88 20.88 0 1 1 1.67-.07c-.56.05-1.11.07-1.67.07Zm0-37.22h-1.34a16.47 16.47 0 0 0-15.1 17.72 16.51 16.51 0 0 0 17.72 15.09 16.46 16.46 0 0 0-1.28-32.86ZM515.23 337.05a20.87 20.87 0 1 1 1.69-.07c-.56.02-1.13.07-1.69.07Zm.06-37.22c-.44 0-.89 0-1.33.05A16.46 16.46 0 1 0 531.67 315a16.45 16.45 0 0 0-16.38-15.14Z"></path><path fill="#464646" d="M1915 1686.3a1.66 1.66 0 0 1-1.67-1.67v-75.83a1.67 1.67 0 0 1 3.34 0v75.83a1.67 1.67 0 0 1-1.67 1.67Z"></path><path fill="#86a430" d="M1839.84 1531.41c-16 17-12.13 47.44 9 68.58s51.6 25.06 68.58 9ZM1879.43 1480c0 48.54 30.89 87.91 69 87.91s69-39.37 69-87.91a106 106 0 0 0-10.59-46.86h-29.7l17-19c-12.17-13.75-28.18-22.09-45.73-22.09-38.09.07-68.98 39.42-68.98 87.95Z"></path><path fill="#464646" d="M1950.32 1686.47a1.66 1.66 0 0 1-1.67-1.67v-246.37a1.67 1.67 0 0 1 3.34 0v246.37a1.67 1.67 0 0 1-1.67 1.67ZM1983.16 1684.82a1.66 1.66 0 0 1-1.66-1.67v-96.67a1.67 1.67 0 1 1 3.33 0v96.67a1.67 1.67 0 0 1-1.67 1.67Z"></path><path fill="#86a430" d="M2107.39 1460.77c26 27.51 19.64 76.86-14.62 111.12s-83.6 40.6-111.12 14.62Z"></path><path fill="#464646" d="M1950.32 1482.92a1.63 1.63 0 0 1-1.18-.49l-28.74-28.73a1.67 1.67 0 0 1 2.37-2.36l28.73 28.73a1.67 1.67 0 0 1 0 2.36 1.65 1.65 0 0 1-1.18.49ZM1950.32 1514.4a1.66 1.66 0 0 1-1.18-.48 1.68 1.68 0 0 1 0-2.37l30.23-30.23a1.67 1.67 0 0 1 2.36 2.36l-30.23 30.24a1.68 1.68 0 0 1-1.18.48Z"></path><path fill="#ccc" d="M2055.57 1684.8v54.2a68.18 68.18 0 0 1-13.29 40.57 10.36 10.36 0 0 0-1.32 1.19 19.31 19.31 0 0 0-2.63 3.7c-.12.14-.24.29-.37.43-.26.32-.51.59-.79.89-.38.4-.76.81-1.14 1.19-1.48 1.5-3 2.94-4.61 4.31a68.48 68.48 0 0 1-44.52 16.37h-67.94a68.67 68.67 0 0 1-68.13-60c-.13-.95-.24-1.9-.32-2.86 0-.36 0-.72-.08-1.08-.05-.74-.09-1.48-.11-2.22s0-1.67 0-2.5v-54.19Z"></path><path fill="gray" d="M1783.25 854.35h-718.34a1.44 1.44 0 0 1 0-2.87h718.34a1.44 1.44 0 1 1 0 2.87ZM1783.25 772.45h-718.34a1.44 1.44 0 0 1 0-2.88h718.34a1.44 1.44 0 1 1 0 2.88ZM1783.25 690.55h-718.34a1.44 1.44 0 0 1 0-2.87h718.34a1.44 1.44 0 1 1 0 2.87ZM1783.25 608.65h-718.34a1.44 1.44 0 0 1 0-2.88h718.34a1.44 1.44 0 1 1 0 2.88ZM1783.25 526.75h-718.34a1.44 1.44 0 0 1 0-2.87h718.34a1.44 1.44 0 1 1 0 2.87ZM1783.25 444.85h-718.34a1.44 1.44 0 0 1 0-2.88h718.34a1.44 1.44 0 1 1 0 2.88Z"></path><path fill="#545ed7" d="M1160.07 855.66a3.58 3.58 0 0 1-2.32-.85l-95.17-81.07a3.59 3.59 0 1 1 4.66-5.46l92.51 78.81 144.52-159.34a3.58 3.58 0 0 1 4.54-.64l128.44 79 46.35-241.79a3.6 3.6 0 0 1 5.84-2.08L1677 679.77l84.71-235.83a3.59 3.59 0 0 1 6.75 2.43L1682 687a3.57 3.57 0 0 1-2.44 2.25 3.65 3.65 0 0 1-3.25-.72L1489.5 531.7l-46.18 240.9a3.57 3.57 0 0 1-2.08 2.61 3.63 3.63 0 0 1-3.33-.23l-130.33-80.2-144.85 159.71a3.56 3.56 0 0 1-2.66 1.17Z"></path><path fill="#86a430" d="M1513.83 524.88a25 25 0 1 1-25-25 25 25 0 0 1 25 25Z"></path><path fill="#fff" d="M1499.24 524.88a10.39 10.39 0 1 1-10.39-10.39 10.39 10.39 0 0 1 10.39 10.39Z"></path><path fill="#ffd3cf" d="m834.19 462.52-.52 4.51-2.18 32.09-39.49 27.4-51.1-32.59 1.43-28.33.39-3.82 91.47.74z"></path><path fill="#ffb2a9" d="m834.19 462.52-.52 4.51a51.66 51.66 0 0 1-91.34-1.43l.39-3.82Z"></path><path fill="#ffd3cf" d="M783 489a51.69 51.69 0 0 1-45.85-56.93l5.67-52.59 102.79 11.09-5.67 52.58A51.69 51.69 0 0 1 783 489Z"></path><path fill="#ffd3cf" d="M744.51 433.84c-1.53 8.88-2.28 16.17-11.16 14.64s-22.54-11.29-21-20.17a16.32 16.32 0 1 1 32.17 5.53ZM831.6 441.68c.06 9-.39 16.32 8.62 16.26s24.08-7.46 24-16.48a16.32 16.32 0 0 0-32.64.22Z"></path><path fill="#464646" d="M719.34 417.52S708.7 405 708.23 387.68a20.6 20.6 0 0 1 16.63-20.89l.43-.07S716.62 335 748.72 316s57.63 18.81 57.63 18.81a12.58 12.58 0 0 1 14-4.7s7.72 1.39 7.37 10.45c0 0 13.2-14.31 35.31 1.69 27.3 19.77-2.84 89.41-2.84 89.41s-5.66-10.35-19.14-5.39l3.65-25.49s-25.9 12.72-38.62-10.47c0 0-14.14 20.52-33.18 14.12-20.43-6.87-19.07 16.58-34.26 13.83-.02.01-9.2-7.12-19.3-.74Z"></path><path fill="#fff" d="M771.54 460.18a15.82 15.82 0 0 0 31.54 2.23Z"></path><path fill="#464646" d="M817.11 417a2.05 2.05 0 0 1-2.32 1.52l-11-1.87a3 3 0 0 1-2.17-3.61 3 3 0 0 1 3.88-2.04l10.31 3.63a2 2 0 0 1 1.3 2.42ZM764.45 412.81a2 2 0 0 0 1.89 2l11.13.8a3 3 0 0 0 3-3 3 3 0 0 0-3.26-2.95l-10.88 1.07a2 2 0 0 0-1.84 2ZM770.48 432.71c-.15 2.42 1.18 4.47 3 4.58s3.36-1.75 3.51-4.17-1.17-4.46-3-4.58-3.36 1.76-3.51 4.17Z"></path><path fill="#fff" d="m772.91 444.28-6.73-.43a12.93 12.93 0 0 1-12.1-13.73l.64-10.15 32.57 2-.65 10.16A13 13 0 0 1 775 444.25a14 14 0 0 1-2.09.03ZM756.5 422l-.52 8.25A11.05 11.05 0 0 0 766.3 442l6.73.42a11 11 0 0 0 11.71-10.32l.52-8.24Z"></path><path fill="#464646" d="M803 434.77c-.16 2.41 1.17 4.46 3 4.58s3.37-1.76 3.52-4.17-1.18-4.47-3-4.58-3.35 1.75-3.52 4.17Z"></path><path fill="#fff" d="m814.06 446.87-6.73-.42a13 13 0 0 1-12.11-13.73l.64-10.16 32.57 2.06-.64 10.15a12.93 12.93 0 0 1-11.69 12.07 11.56 11.56 0 0 1-2.04.03Zm-16.41-22.28-.52 8.25a11.05 11.05 0 0 0 10.32 11.71l6.73.42a11 11 0 0 0 11.71-10.32l.52-8.25Z"></path><path fill="#ff7867" d="M784.76 452.15h.1l13.22-2.57a.93.93 0 0 0 .64-.45.94.94 0 0 0 .09-.77l-9-28.47a1 1 0 0 0-1.2-.62.94.94 0 0 0-.62 1.19l8.68 27.45-12.17 2.37a1 1 0 0 0-.75 1.12.94.94 0 0 0 1.01.75Z"></path><path fill="#ff7867" d="m756.23 422.75 70.42 4.44a1.72 1.72 0 0 0 1.83-1.61 1.72 1.72 0 0 0-1.61-1.83l-70.43-4.45a1.72 1.72 0 0 0-1.83 1.62 1.72 1.72 0 0 0 1.62 1.83Z"></path><path fill="#464646" d="M1122 538.64s32.68-17.19 52.3 30.77l-47.08-2.2Z"></path><path fill="#ffcec8" d="m1107.6 579.14 37.65-50.55 17.75-25.26 39-26.53a3.84 3.84 0 0 1 5.38 1.08 3.84 3.84 0 0 1-.55 4.83l-23.18 22.5 4-1.25a16.34 16.34 0 0 1 12.22 1l18.84 9.4a3.19 3.19 0 0 1 1.1 4.79 3.19 3.19 0 0 1-3.41 1.12l-13.16-3.8-10.31-3 9 1.26 8.53 10.2a2.48 2.48 0 0 1-.3 3.46 2.45 2.45 0 0 1-3 .15l-11-7.57-12.35-4.26L1165.6 549l-10.09 38.58Z"></path><path fill="#ffcec8" d="m1165.05 523.81 35.52-16.76a4.56 4.56 0 0 1 5.22.94 4.57 4.57 0 0 1-.47 6.81l-24.19 18.72S1178 543.89 1165.6 549l-9.21-11.47Z"></path><path fill="#ff9c91" d="M1165.05 524.61a.79.79 0 0 1-.34-1.51l35.52-16.77a5.36 5.36 0 0 1 5.57 9.09l-8.54 6.61a.78.78 0 1 1-1-1.24l8.53-6.61a3.8 3.8 0 0 0 .4-5.64 3.8 3.8 0 0 0-4.33-.78l-35.52 16.77a.8.8 0 0 1-.29.08ZM1182.22 514.58a.8.8 0 0 1-.71-.45c-2.51-5.12 1.58-9.43 1.62-9.47a.79.79 0 0 1 1.14 1.1c-.14.15-3.36 3.56-1.35 7.68a.78.78 0 0 1-.36 1 .72.72 0 0 1-.34.14Z"></path><path fill="#ffcec8" d="m1206.43 513.54-9.65 7.87Z"></path><path fill="#464646" d="m1175 563.38-.85-1.23a19.9 19.9 0 0 0-10.75-7.28c-5.12-1.24-10.57.29-15.88.18a27 27 0 0 1-20-9.46 30.62 30.62 0 0 1-4.64-7.63l-43.57 50.72-16.51 19.19-21.19 24.68-36.11-33.11c-7.68-7.11-15.44-14.18-23.14-21.24-.26-.25-.49-.43-.75-.68-18.45-16.95-35.5-35.35-56.05-49.83C919 523 912 518.6 904.85 514.47l1.21 126.27 111.7 94.06a79.4 79.4 0 0 0 18.71 9.52l.17.06a34.48 34.48 0 0 0 33.12-5.22l.31-.25a67.3 67.3 0 0 0 12.38-12.59l96.83-155.17a40.65 40.65 0 0 0-4.28-7.77Z"></path><path fill="#ffcec8" d="M892.42 1753.76s-15.35-2.16-23.72 15.83-25.42 19.23-25.42 19.23l-8.14 1.48.42-109.52 72.51-4.89Z"></path><path fill="#e3e3e3" d="m835.41 1720.26-.27 70 8.14-1.48s17.05-1.23 25.42-19.23 23.72-15.83 23.72-15.83l6.73-33.5Z"></path><path fill="#ffcec8" d="M544.66 1753.83s-10.64-2.23-18.48 15.76-23.82 19.23-23.82 19.23h-23.14l21.93-106.53 65.85.71Z"></path><path fill="#e3e3e3" d="m492.79 1722.91-13.57 65.91h23.14s15.13-1.62 23.82-19.23c7.84-15.9 18.48-15.76 18.48-15.76l10.26-30.92Z"></path><path fill="#464646" d="M975.23 1778.49c-1.29-.57-2.53-1-3.64-1.43a38.94 38.94 0 0 0-6.92-1.77 269.17 269.17 0 0 1-42.84-8.82h-.05c-1-.34-1.93-.6-2.81-1-3.83-1.21-7.19-2.42-10.19-3.58-1-.35-1.94-.74-2.77-1.13-3.5-1.46-6.31-2.8-8.39-3.93-1-.56-1.84-1-2.54-1.42-1.79-1-2.67-1.69-2.67-1.69s-15.36-2.16-23.7 15.82a35 35 0 0 1-7.18 10.27c-5.51 5.4-14.41 7-21 2.81a11.94 11.94 0 0 1-5.34-6.6v29.21h158.03c0-15.38-9.87-23.03-17.99-26.74Z"></path><path fill="#fff" d="M910.78 1782.64a2.13 2.13 0 0 0 .7.13 1.58 1.58 0 0 0 1.34-.74l9-15.57c-1-.33-1.94-.61-2.83-.93l-8.78 15.2a1.4 1.4 0 0 0 .57 1.91ZM897.68 1778.17a1.32 1.32 0 0 0 .7.19 1.59 1.59 0 0 0 1.34-.75l9.08-15.61c-1-.37-1.94-.75-2.78-1.12l-8.93 15.48a1.3 1.3 0 0 0 .59 1.81ZM886.32 1773.52a1.94 1.94 0 0 0 .74.14 1.46 1.46 0 0 0 1.29-.69l9.28-16.09c-1-.56-1.83-1-2.53-1.44l-9.38 16.18a1.37 1.37 0 0 0 .6 1.9Z"></path><path fill="#464646" d="M642.82 1805.23H474.15l1.21-4.67.73-2.72 5.71-21.77c1.59 5.53 10.84 8 18.53 9.11 9 1.3 17.43-3.38 22.36-11a39.16 39.16 0 0 0 2.81-5.31c7.86-18 22.92-15.07 22.92-15.07a21.23 21.23 0 0 0 2.5 1.69l2.38 1.42a82.16 82.16 0 0 0 7.82 3.93c.82.39 1.68.78 2.63 1.13 2.77 1.16 5.92 2.37 9.51 3.58.86.35 1.73.61 2.68 1a236.68 236.68 0 0 0 40.1 8.82 34.6 34.6 0 0 1 6.48 1.77c1.08.39 2.24.86 3.45 1.43 7.6 3.63 16.85 11.28 16.85 26.66Z"></path><path fill="#fff" d="M565.6 1782.64a1.87 1.87 0 0 0 .65.13 1.46 1.46 0 0 0 1.26-.74l8.41-15.57c-.93-.33-1.81-.61-2.65-.93l-8.23 15.2a1.45 1.45 0 0 0 .56 1.91ZM553.33 1778.17a1.14 1.14 0 0 0 .65.19 1.46 1.46 0 0 0 1.25-.75l8.51-15.66c-.93-.37-1.81-.75-2.6-1.12l-8.37 15.48a1.34 1.34 0 0 0 .56 1.86ZM542.68 1773.52a1.75 1.75 0 0 0 .7.14 1.37 1.37 0 0 0 1.21-.69l8.69-16.09c-.93-.56-1.72-1-2.37-1.44l-8.79 16.18a1.42 1.42 0 0 0 .56 1.9Z"></path><path fill="#545ed7" d="m622.59 880.63-145 858.1h90.11l192.3-647.1 57 145.2a67.09 67.09 0 0 1 6.51 33.78l-5 468.12h97.56l43.08-479a67.32 67.32 0 0 0-2-26.31L896.47 851l-113.08-30-154 3.58Z"></path><path fill="#3b45bf" d="m763.38 1088.43-5.04-1.1 16.14-74.58 31.51-24.49 3.16 4.07-30.03 23.34-15.74 72.76z"></path><path fill="#464646" d="M865.14 960.66h95.43l-22.72-423.55c-33.07-25.75-45.64-31.58-95.37-40-2.63-.45-25.19 359.38-28.61 414.06h.5a50.79 50.79 0 0 0 50.77 49.49Z"></path><path fill="#86a430" d="M818.12 850.24a27.38 27.38 0 0 0-.49 7.1v.06l-3.71 53.77-105.86 3.53 12.44-190 .06-.86.13-2v-.89l.11-1.57.09-1.33.07-1.13V716l.07-1.19v-.6l.09-1.42v-.43l.19-2.78v-.48l14.33-218.92 4.83 2.72 52.47 29.5L830 496.94l2.52-9.42 10 9.59-24.07 349Z"></path><path fill="#fff" d="M773.73 901.29a1.07 1.07 0 0 0 1-.95c.35-3.06.43-6 .5-8.78 0-1.66.09-3.37.19-5.12.25-5.38.61-10.86 1-16.15s.72-10.8 1-16.2c.06-1.66.09-3.33.11-4.94a107.84 107.84 0 0 1 .94-14.77c.53-4 2.43-7.24 4.44-10.68.47-.8 1-1.64 1.43-2.48a6 6 0 0 0 .82-5.17 18.47 18.47 0 0 0-2.19-4.3 16.78 16.78 0 0 1-2-3.78c-.67-2.35 1.51-3.75 4.43-5.33a8 8 0 0 0 4.17-5 6.53 6.53 0 0 0-1.06-5.28 1 1 0 0 0-.16-.19 3.34 3.34 0 0 1-.71-1.45 5.85 5.85 0 0 0-.47-1.24 1.07 1.07 0 0 0-.15-.22 31.08 31.08 0 0 1-6-8.72c2.48-53.3 5.35-107.36 8.12-159.64 1.7-32.19 3.47-65.47 5.12-98.27a1.07 1.07 0 0 0-1-1.13 1.08 1.08 0 0 0-1.14 1c-1.66 32.8-3.42 66.08-5.13 98.27-2.77 52.36-5.64 106.5-8.13 159.9a1 1 0 0 0 .08.46 32.35 32.35 0 0 0 6.44 9.46 7.08 7.08 0 0 1 .25.74 5.22 5.22 0 0 0 1.2 2.3 4.35 4.35 0 0 1 .69 3.47 5.92 5.92 0 0 1-3.09 3.58c-2.66 1.45-6.68 3.63-5.47 7.87a18.86 18.86 0 0 0 2.19 4.3 17 17 0 0 1 2 3.78 3.88 3.88 0 0 1-.61 3.42c-.46.82-.95 1.65-1.42 2.46-2 3.46-4.13 7-4.71 11.46a109.27 109.27 0 0 0-1 15c0 1.61-.05 3.27-.1 4.9-.25 5.36-.62 10.84-1 16.13s-.72 10.79-1 16.19c-.1 1.77-.14 3.5-.19 5.17-.07 2.89-.14 5.62-.48 8.59a1.08 1.08 0 0 0 1 1.2Z"></path><path fill="#fff" d="M818.37 537.13a1.1 1.1 0 0 0 .86-.47l23.89-35.22a1.09 1.09 0 0 0-.28-1.51 1.1 1.1 0 0 0-1.51.29L818 534.63l-24.32-13a1.07 1.07 0 0 0-1.08 0l-19.17 11.93-38.15-25.86a1.08 1.08 0 0 0-1.21 1.8l38.73 26.25a1.1 1.1 0 0 0 1.18 0l19.23-12L817.82 537a1 1 0 0 0 .55.13ZM796.57 556.4a4.82 4.82 0 1 0 4.65-5 4.81 4.81 0 0 0-4.65 5ZM792.1 663.39a4.82 4.82 0 1 0 4.66-5 4.82 4.82 0 0 0-4.66 5ZM787.46 765a4.82 4.82 0 1 0 4.66-5 4.82 4.82 0 0 0-4.66 5ZM780.17 884.3a4.82 4.82 0 1 0 4.65-5 4.8 4.8 0 0 0-4.65 5Z"></path><path fill="#464646" d="M550.41 866.71q.47.36 1 .69C566.3 877.94 581 877.75 581 877.75l-11.33 82.91h85.39a53.91 53.91 0 0 0 53.31-46l27.48-424.48-68.52 12.92c-19.21 3.61-36.8 12.27-53.32 22.71-68.81 43.48-84 296.32-84 296.32a51 51 0 0 0 20.4 44.58Z"></path><path fill="#464646" d="m646.63 802.28 9.8 84.13 105.36 10.7a26.56 26.56 0 0 0 1.37-13.62c-2.32-15.59-10.53-31.49-4.49-47.29C761 830 766 824.61 772.4 823Z"></path><path fill="#1f1f1f" d="M644.22 605.13a.87.87 0 1 1 1.72.23L620.5 797.08l94.4 15.58v1.76l-95.51-15.76a.88.88 0 0 1-.72-1ZM576.18 877.3l134.07 13.75v1.75L576 879a.87.87 0 0 1 .18-1.73Z"></path><path fill="#ffcec8" d="m763.13 883.35 9-1.93s7.09 7.3 20 2.07l8.46 4.35 5.62 8.68 8.18 13.69a2.83 2.83 0 0 0 .85.91l3.89-.14a3.1 3.1 0 0 0 1-3.16l-3.9-15.55-6.32-10.36a.6.6 0 0 1 .28-.88.62.62 0 0 1 .71.18l8.49 10.57 4.29 15.52a3 3 0 0 0 3.44 2.07 2.9 2.9 0 0 0 2.28-2.85l.07-18.36v-.53l-8-10.25-2.74-3.51 5.06 6.25 5.65 7 1.19 1.47 3.16 12.64a3.42 3.42 0 0 0 6.74-1l-1.15-19.48 6.84 8.28a2.56 2.56 0 0 0 3.58.39 2.6 2.6 0 0 0 .67-3.2l-8.67-16.64a10.72 10.72 0 0 0-4.36-4.49l-17.94-10-35.74-11.62c-4.7-1.55-16.71-4-25.66-5.73-4.94 15.26 2.78 30.58 5.03 45.61Z"></path><path fill="#ff7867" d="M838.73 881.32h.06a.43.43 0 0 0 .36-.5l-.18-1.07a6.74 6.74 0 0 0-2.19-4l-13.5-11.88a.44.44 0 0 0-.61 0 .43.43 0 0 0 0 .61l13.49 11.88a5.82 5.82 0 0 1 1.91 3.44l.18 1.07a.43.43 0 0 0 .48.45ZM829.26 888.23h.15a.44.44 0 0 0 .24-.57l-.45-1.11a.44.44 0 0 0-.08-.11l-10.07-11.87a.44.44 0 0 0-.61 0 .42.42 0 0 0-.05.61l10 11.82.43 1a.43.43 0 0 0 .44.23Z"></path><path fill="#fff" d="M1164 605.61a1.05 1.05 0 0 1-1-.8c-.23-.91-6-22.34-34.43-18.77-10.35 1.28-18.5-.5-24.26-5.28a23.37 23.37 0 0 1-8.06-15.41 1.06 1.06 0 0 1 1-1.11 1 1 0 0 1 1.11 1 21.68 21.68 0 0 0 7.33 13.93c5.29 4.38 12.9 6 22.63 4.79 30.31-3.72 36.67 20.11 36.73 20.35a1.05 1.05 0 0 1-.76 1.28 1.15 1.15 0 0 1-.29.02ZM1160.17 578.9a6.9 6.9 0 1 1 4.34-1.53 6.9 6.9 0 0 1-4.34 1.53Zm0-11.7a4.74 4.74 0 0 0-3 1.07 4.8 4.8 0 1 0 6.74.71 4.71 4.71 0 0 0-3.22-1.75ZM749.13 889.26a6.91 6.91 0 1 1 6.9-6.91 6.91 6.91 0 0 1-6.9 6.91Zm0-11.7a4.8 4.8 0 1 0 4.8 4.79 4.8 4.8 0 0 0-4.8-4.79Z"></path><path fill="#464646" d="M772.4 823s4.8 11.09 3.87 18.58l-18.16-3.87S761 825.73 772.4 823Z"></path><path fill="#fff" d="M734.33 895.18a1.09 1.09 0 0 1-.46-.1 1.15 1.15 0 0 1-.59-1.51c3.85-8.73-.76-26.42-2.92-33.61a57.21 57.21 0 0 1-2.22-22.37c1.24-11.83 5.58-18 9-21.09a1.14 1.14 0 1 1 1.53 1.7c-3.12 2.83-7.09 8.52-8.26 19.64a54.9 54.9 0 0 0 2.14 21.46c2.77 9.24 6.83 26.11 2.82 35.19a1.14 1.14 0 0 1-1.04.69Z"></path><path fill="#86a430" d="m741.39 482.33-5.54 7.88 5.05 3.72.49-11.6z"></path></g></svg>