<svg xmlns="http://www.w3.org/2000/svg" viewBox="0 0 1229.46 849.87" id="work-space"><g><path fill="#f8f8ff" d="M422.78 518.86a152.93 152.93 0 0 1-14.36-109.05c25.23-104.3 96.85-287.36 286.4-261.44 263 36 339.45 45 447.36 11.24s294.49-33.72 352.94 42.71c35.43 46.33 155.11 254 78.68 326s37 214.35 40.46 290-105.65 85.38-242.78 87.68-934.16-23.89-934.16-23.89-102.18-176.23-21.25-239.18c50.08-38.93 27.66-85.59 6.71-124.07Z" transform="translate(-384.89 -138.06)"></path><path fill="#f5f5fc" d="M502.52 799.68c-17.54-.61-83.25 8.36-87.1 11.8-1 .93-15.37 43.66 47.86 98.89 101.16 88.36 373.39 91.38 461.62 57.77 128-48.77 268.26 42.68 559 7.68 92.91-11.18 155-153.5 112.76-171.95-25.29-11-55.57 18.19-81 5.38-29.27-14.77-88.58-24-125.3-12.67a2.84 2.84 0 0 0 1.28 5.53l-19.34 6.17c-21.49 16-16.65-5.26-67.06-8l-148.63-3.67C1103.47 798.21 899 807.2 819 804h-44c-29.36-3.67-105.52-5.41-108.26-5.5Z" transform="translate(-384.89 -138.06)"></path></g><g><path fill="#bac6f2" d="M563 582h45s14 2 15 12-.33 140.08-.33 140.08L713 733s9 3 9 13-7 14-7 14l-137.24-.62L563 582" transform="translate(-384.89 -138.06)"></path><path fill="#b1c1f2" d="M563 582s-13 2-14 22 0 155 0 155l137.11 1a7.05 7.05 0 0 0 5.23-2.28c2-2.2 4.66-5.64 4.66-8.7 0-5.39-2-14-13-14s-104-1-104-1l-2-140S577 584 563 582Z" transform="translate(-384.89 -138.06)"></path><path fill="#bac6f2" d="M620.42 759.66S618 771 626 771h13c1 0 5.26-6 2.63-11s-21.2-.35-21.2-.35" transform="translate(-384.89 -138.06)"></path><path fill="#e9edfa" d="m241.11 633 1 112.94h9l.5-113.59-10.5.65z"></path><path fill="#e9edfa" d="m204.11 743.94 86 1v8l-86-1v-8z"></path></g><g><path fill="#fff" d="m374.11 753.94-4-209h21l-1 209h-16zM831.11 545.94h23l-8 209-15 1v-210z"></path><path fill="#e9edfa" d="m354.11 508.94 1 34 509 3 .54-38.03-510.54 1.03z"></path><path fill="#bac6f2" d="m323.11 489.94 572 2v19l-571-1-1-20z"></path></g><g><path fill="#e9edfa" d="m1022.82 667.69 1 85 114-2v-83h-115z"></path><path fill="#fff" d="m1112.79 751.1.07-83.41h-7.22"></path><path fill="#bac6f2" d="M1437.25 805.57s-2.72-50.41 21.12-64.72 3.41-47.69 8.17-65.4 27.25-30.65 27.25-44.28-2-51.77 23.84-63.35 46.32 3.41 38.15 25.89-14.31 48.37-23.16 56.54-5.45 21.12-4.09 36.79-10.9 41.55-17.71 51.09 0 25.89-2 42.92c0 0-3.72 23.84-7.46 24.63s-64.11-.11-64.11-.11Z" transform="translate(-384.89 -138.06)"></path><path fill="#bac6f2" d="M1490.49 807.12s3-24-23.57-30.76-3.8-22.67-9.12-31.08-30.41-14.57-30.41-21 2.28-24.61-26.61-30.11-51.7 1.62-42.58 12.3 16 23 25.85 26.88 6.08 10 4.56 17.49 12.16 19.75 19.77 24.28 0 12.3 2.28 20.4c0 0 4.15 11.33 8.32 11.71s71.51-.11 71.51-.11Z" transform="translate(-384.89 -138.06)"></path><path fill="#bac6f2" d="M1468.26 807.11s-2.12-25.06 16.41-32.17 2.65-23.7 6.35-32.51 21.17-15.24 21.17-22-1.59-25.74 18.52-31.49 36 1.69 29.64 12.87-11.11 24-18 28.11-4.23 10.5-3.18 18.29-8.47 20.66-13.76 25.4 0 12.87-1.59 21.33c0 0-2.89 11.85-5.79 12.24s-49.77-.07-49.77-.07Z" transform="translate(-384.89 -138.06)"></path></g><g><path fill="#fff" d="m441.85 185.73.74 191.72 533.55-.74V187.22l-534.29-1.49z"></path><path fill="#bac6f2" d="M537.33 245.73v23.6l218.5-1.03v-22.57h-218.5zM537.33 311.38v23.6l218.5-1.03v-22.57h-218.5z"></path><circle cx="500.4" cy="261.15" r="16.41" fill="#bac6f2"></circle><circle cx="500.4" cy="322.44" r="16.41" fill="#bac6f2"></circle><path fill="#e9edfa" d="M815.47 271.55h129.72v63.28H815.47z"></path><path fill="none" stroke="#bac6f2" stroke-linecap="round" stroke-linejoin="round" stroke-width="3" d="M1198.34 469.87s10.1-22.12 19.71-19.71 12 12.5 19.23 8.17 11.9-21.73 18.91-24.45c10-3.89 13.3.4 26.77 8.1s19.19 6 24.74.32c5.07-5.2 14.5-19.31 24.94-25.59" transform="translate(-384.89 -138.06)"></path><path fill="#fff" d="M207.29 188.21h193v183.47h-193z"></path><circle cx="301.26" cy="299.28" r="49.93" fill="none" stroke="#bac6f2" stroke-linecap="round" stroke-linejoin="round" stroke-width="6"></circle><path fill="#bac6f2" d="M219.97 204.05h49.1v11.61h-49.1zM219.97 222.26h49.1v11.61h-49.1z"></path></g></svg>